<svg width="52" height="52" viewBox="0 0 52 52" fill="none" xmlns="http://www.w3.org/2000/svg">
<g filter="url(#filter0_i_319_8)">
<path d="M51 26C51 29.283 50.3534 32.5339 49.097 35.5671C47.8406 38.6002 45.9991 41.3562 43.6777 43.6777C41.3562 45.9991 38.6002 47.8406 35.5671 49.097C32.5339 50.3534 29.283 51 26 51C22.717 51 19.4661 50.3534 16.4329 49.097C13.3998 47.8406 10.6438 45.9991 8.32233 43.6777C6.00086 41.3562 4.15938 38.6002 2.90301 35.5671C1.64664 32.5339 1 29.283 1 26L26 26H51Z" fill="white"/>
</g>
<path d="M51 26C51 29.283 50.3534 32.5339 49.097 35.5671C47.8406 38.6002 45.9991 41.3562 43.6777 43.6777C41.3562 45.9991 38.6002 47.8406 35.5671 49.097C32.5339 50.3534 29.283 51 26 51C22.717 51 19.4661 50.3534 16.4329 49.097C13.3998 47.8406 10.6438 45.9991 8.32233 43.6777C6.00086 41.3562 4.15938 38.6002 2.90301 35.5671C1.64664 32.5339 1 29.283 1 26L26 26H51Z" stroke="black" stroke-width="2"/>
<g filter="url(#filter1_i_319_8)">
<path d="M1 26C1 22.7169 1.64665 19.466 2.90301 16.4329C4.15938 13.3998 6.00087 10.6438 8.32233 8.32233C10.6438 6.00086 13.3998 4.15938 16.4329 2.90301C19.4661 1.64664 22.717 0.999997 26 0.999998C29.2831 0.999998 32.534 1.64664 35.5671 2.90301C38.6002 4.15938 41.3562 6.00087 43.6777 8.32233C45.9991 10.6438 47.8406 13.3998 49.097 16.4329C50.3534 19.4661 51 22.717 51 26L26 26L1 26Z" fill="#FF4C41"/>
</g>
<path d="M1 26C1 22.7169 1.64665 19.466 2.90301 16.4329C4.15938 13.3998 6.00087 10.6438 8.32233 8.32233C10.6438 6.00086 13.3998 4.15938 16.4329 2.90301C19.4661 1.64664 22.717 0.999997 26 0.999998C29.2831 0.999998 32.534 1.64664 35.5671 2.90301C38.6002 4.15938 41.3562 6.00087 43.6777 8.32233C45.9991 10.6438 47.8406 13.3998 49.097 16.4329C50.3534 19.4661 51 22.717 51 26L26 26L1 26Z" stroke="black" stroke-width="2"/>
<path d="M1.00439 24.0002H51.0044V28.0002H1.00439V24.0002Z" fill="black"/>
<circle cx="26" cy="26" r="7" fill="white" stroke="black" stroke-width="4"/>
<path d="M10.2236 14.1193C10.2236 14.1193 15.1282 10.1254 17.7251 7.15829C18.3136 6.48586 18.9663 5.91001 19.1868 5.40551C19.5878 4.48787 17.2441 5.23987 16.2151 5.65348C12.3255 7.21682 8.48534 10.5793 7.36162 14.2013C7.05508 15.1893 7.11498 16.0409 7.90224 15.9752C8.441 15.9302 10.2236 14.1193 10.2236 14.1193Z" fill="white" fill-opacity="0.8"/>
<path d="M5.41089 17.5481C5.24271 18.0634 5.26964 18.7324 5.7903 18.8833C6.30328 19.032 6.83056 17.9955 6.83056 17.9955C6.83056 17.9955 7.27465 16.8651 6.79505 16.6511C6.43098 16.4887 5.61597 16.9197 5.41089 17.5481Z" fill="white" fill-opacity="0.8"/>
<path d="M4.58836 19.9941C4.59987 20.2151 4.65626 20.3942 4.85322 20.4951C5.18771 20.6666 5.48747 20.1355 5.47428 19.7599C5.46721 19.5588 5.43556 19.4033 5.27211 19.2858C4.9599 19.0614 4.56838 19.6102 4.58836 19.9941Z" fill="white" fill-opacity="0.8"/>
<defs>
<filter id="filter0_i_319_8" x="0" y="25" width="52" height="27" filterUnits="userSpaceOnUse" color-interpolation-filters="sRGB">
<feFlood flood-opacity="0" result="BackgroundImageFix"/>
<feBlend mode="normal" in="SourceGraphic" in2="BackgroundImageFix" result="shape"/>
<feColorMatrix in="SourceAlpha" type="matrix" values="0 0 0 0 0 0 0 0 0 0 0 0 0 0 0 0 0 0 127 0" result="hardAlpha"/>
<feOffset dx="-10" dy="-2"/>
<feComposite in2="hardAlpha" operator="arithmetic" k2="-1" k3="1"/>
<feColorMatrix type="matrix" values="0 0 0 0 0 0 0 0 0 0 0 0 0 0 0 0 0 0 0.25 0"/>
<feBlend mode="normal" in2="shape" result="effect1_innerShadow_319_8"/>
</filter>
<filter id="filter1_i_319_8" x="0" y="0" width="52" height="27" filterUnits="userSpaceOnUse" color-interpolation-filters="sRGB">
<feFlood flood-opacity="0" result="BackgroundImageFix"/>
<feBlend mode="normal" in="SourceGraphic" in2="BackgroundImageFix" result="shape"/>
<feColorMatrix in="SourceAlpha" type="matrix" values="0 0 0 0 0 0 0 0 0 0 0 0 0 0 0 0 0 0 127 0" result="hardAlpha"/>
<feOffset dx="-10" dy="-2"/>
<feComposite in2="hardAlpha" operator="arithmetic" k2="-1" k3="1"/>
<feColorMatrix type="matrix" values="0 0 0 0 0 0 0 0 0 0 0 0 0 0 0 0 0 0 0.25 0"/>
<feBlend mode="normal" in2="shape" result="effect1_innerShadow_319_8"/>
</filter>
</defs>
</svg>
